<svg width="628" height="158" viewBox="0 0 628 158" fill="none" xmlns="http://www.w3.org/2000/svg">
<path d="M511 158H571V57L541 36L511 57V158Z" fill="#1B8DF0"/>
<path d="M628 40H571L541 19L511 40H454V2H628V40Z" fill="white"/>
<path d="M277 2L217 2V99L247 120L277 99V2Z" fill="#1B8DF0"/>
<path d="M277 158H217V121L247 142L277 121V158Z" fill="white"/>
<path d="M434 40H357V66H427V102H357V158H297V2H434V40Z" fill="white"/>
<path d="M115 121H197V158H55V2H115V121Z" fill="white"/>
<path d="M35 156.312H8.81818V144.96C8.81818 142.966 9.08665 141.291 9.62358 139.936C10.1605 138.572 10.919 137.545 11.8991 136.855C12.8793 136.156 14.0341 135.807 15.3636 135.807C16.3267 135.807 17.2045 136.02 17.9972 136.446C18.7898 136.864 19.4545 137.452 19.9915 138.21C20.5199 138.969 20.8864 139.855 21.0909 140.869H21.3466C21.3892 139.744 21.6747 138.722 22.2031 137.801C22.723 136.881 23.4432 136.148 24.3636 135.602C25.2756 135.057 26.3494 134.784 27.5852 134.784C29.017 134.784 30.2912 135.159 31.4077 135.909C32.5241 136.651 33.402 137.707 34.0412 139.08C34.6804 140.452 35 142.088 35 143.989V156.312ZM29.3239 149.205V145.881C29.3239 144.687 29.1023 143.793 28.6591 143.196C28.2074 142.599 27.5426 142.301 26.6648 142.301C26.0511 142.301 25.5312 142.442 25.1051 142.723C24.679 143.004 24.3551 143.405 24.1335 143.925C23.9119 144.436 23.8011 145.054 23.8011 145.778V149.205H29.3239ZM19.4034 149.205V146.29C19.4034 145.668 19.3054 145.118 19.1094 144.641C18.9134 144.163 18.6321 143.793 18.2656 143.528C17.8906 143.256 17.4347 143.119 16.8977 143.119C16.0881 143.119 15.4702 143.409 15.044 143.989C14.6094 144.568 14.392 145.301 14.392 146.188V149.205H19.4034ZM35 124.744V132.415L8.81818 123.773L8.81818 114.057L35 105.415V113.085L16.0284 118.813V119.017L35 124.744ZM24.6705 126.176V111.756H29.9886V126.176H24.6705ZM14.5455 106.194H8.81818L8.81818 83.4382H14.5455L14.5455 91.3132H35V98.3189H14.5455V106.194ZM35 80.0431H8.81818V61.1738H14.5455V72.9352H19.0455L19.0455 62.1454H24.7727L24.7727 72.9352H29.2727L29.2727 61.2249H35V80.0431ZM35 56.9286H8.81818L8.81818 45.6275C8.81818 43.6843 9.17187 41.984 9.87926 40.5266C10.5866 39.0692 11.6051 37.9357 12.9347 37.126C14.2642 36.3164 15.858 35.9116 17.7159 35.9116C19.5909 35.9116 21.1719 36.3292 22.4588 37.1644C23.7457 37.9911 24.7173 39.1544 25.3736 40.6544C26.0298 42.1459 26.358 43.8888 26.358 45.8831V52.6331H20.8352V47.315C20.8352 46.4797 20.733 45.7681 20.5284 45.18C20.3153 44.5834 19.9787 44.1275 19.5185 43.8121C19.0582 43.4883 18.4574 43.3263 17.7159 43.3263C16.9659 43.3263 16.3565 43.4883 15.8878 43.8121C15.4105 44.1275 15.0611 44.5834 14.8395 45.18C14.6094 45.7681 14.4943 46.4797 14.4943 47.315V49.8206H35V56.9286ZM22.983 41.5877L35 35.0422V42.7638L22.983 49.1559V41.5877ZM8.81818 25.0538H35V32.1617H8.81818L8.81818 25.0538ZM35 20.9651H8.81818V2.09583H14.5455V13.8572H19.0455L19.0455 3.06742H24.7727L24.7727 13.8572H29.2727L29.2727 2.14697H35V20.9651Z" fill="#1B8DF0"/>
</svg>
